<svg width="64" height="64" viewBox="0 0 64 64" fill="none" xmlns="http://www.w3.org/2000/svg">
<g clip-path="url(#clip0_19_2)">
<path d="M1.30634 51.2446C1.20946 51.1733 1.17759 51.0427 1.23009 50.9346L8.86571 35.209L0.0582136 24.6908C-0.0305364 24.5852 -0.0161614 24.4271 0.0900886 24.339L25.7788 2.93209C30.3495 -0.877908 36.967 -0.985408 41.6626 2.67147C46.3563 6.32834 47.8563 12.7596 45.2595 18.1077L42.4601 23.8746C43.552 23.5083 44.6326 23.1752 45.7013 22.8758L58.3751 19.2352C58.5132 19.1952 58.657 19.2802 58.6882 19.4208L63.9938 43.0058C64.0263 43.1515 63.9276 43.294 63.7788 43.3127C62.097 43.5246 52.9213 44.8427 41.4976 49.6421C28.5545 55.0783 20.0132 62.8046 18.8032 63.9346C18.7138 64.0183 18.5826 64.0215 18.4845 63.949L1.30634 51.2446Z" fill="url(#paint0_linear_19_2)"/>
<path d="M52 12H12V52H52V12Z" fill="black"/>
<path d="M33.1925 28.6249L30 23H31.8332L33.8099 26.5937L34.0407 27.1079L34.2716 26.5872L36.1981 23H38L34.8573 28.6122V32H33.1925V28.6249Z" fill="white"/>
<path d="M15 32.0062V17H18.1513L21.5494 22.9919L21.9463 23.8494L22.3431 22.9812L25.655 17H28.7525V32.0062H25.655V22.5078L21.9463 28.5078L18.1513 22.5078V32.0062H15Z" fill="white"/>
<path d="M33 43.9983H17V46.9983H33V43.9983Z" fill="white"/>
<path d="M49.0375 17H37.0006L37 19.6369H41.5662V32.0062H44.4925V19.6369H49.0375V17Z" fill="white"/>
</g>
<defs>
<linearGradient id="paint0_linear_19_2" x1="-0.102411" y1="32.0002" x2="64.0532" y2="32.0002" gradientUnits="userSpaceOnUse">
<stop stop-color="#FB43FF"/>
<stop offset="0.97" stop-color="#FB406D"/>
</linearGradient>
<clipPath id="clip0_19_2">
<rect width="64" height="64" fill="white"/>
</clipPath>
</defs>
</svg>
